# xmcd CD database file
# Copyright (C) 1993-1998 Ti Kan
#
# Track frame offsets:
# 150
# 12200
# 25795
# 36037
# 48150
# 61512
# 71422
# 82777
# 93280
# 104262
# 114962
# 126692
# 137655
# 148265
# 161407
# 174272
# 187267
# 199855
# 210687
# 222200
# 235042
# 245522
#
# Disc length: 3380 seconds
# Revision: 0
# Processed by: cddbd v1.4b41PL1 Copyright (c) Steve Scherf et al.
# Submitted via: CDSpectrumPro v3.2.327
#
DISCID=290d3216
DTITLE=Teresa Brewer - A Sweet Old-Fashioned Girl
DYEAR=1900
DGENRE=
TTITLE0=(Put Another Nickel In) Music! Music! Music!
TTITLE1='Till I Waltz Again With You
TTITLE2=Have You Ever Been Lonely (Have You Ever Been Blue)
TTITLE3=Ricochet (Rick-O-Shay)
TTITLE4=A Sweet Old-Fashioned Girl
TTITLE5=Jilted
TTITLE6=Let Me Go, Lover!
TTITLE7=Mutual Admiration Society
TTITLE8=The One Rose (That's Left In My Heart)
TTITLE9=Bo Weevil
TTITLE10=A Tear Fell
TTITLE11=Mockin' Bird Hill
TTITLE12=Anymore
TTITLE13=Your Cheatin' Heart
TTITLE14=The Hula Hoop Song
TTITLE15=Gonna Get Along Without Ya Now
TTITLE16=The Hawaiian Wedding Song (Ke Kali Nei Au)
TTITLE17=Heavenly Lover (Al Chiar Di Luna Porto Fortuna)
TTITLE18=Sing Sing Sing
TTITLE19=Empty Arms
TTITLE20=Milord
TTITLE21=I Love Micky (with Mickey Mantle)
EXTD=
EXTT0=
EXTT1=
EXTT2=
EXTT3=
EXTT4=
EXTT5=
EXTT6=
EXTT7=
EXTT8=
EXTT9=
EXTT10=
EXTT11=
EXTT12=
EXTT13=
EXTT14=
EXTT15=
EXTT16=
EXTT17=
EXTT18=
EXTT19=
EXTT20=
EXTT21=
PLAYORDER=
